<?xml version="1.0" standalone="no"?><!DOCTYPE svg PUBLIC "-//W3C//DTD SVG 1.1//EN"
        "http://www.w3.org/Graphics/SVG/1.1/DTD/svg11.dtd">
<svg class="icon" width="200px" height="200.00px" viewBox="0 0 1024 1024" version="1.1" xmlns="http://www.w3.org/2000/svg">
    <path d="M864 128h-576C236.8 128 192 172.8 192 224V320H96C44.8 320 0 364.8 0 416v384c0 51.2 44.8 96 96 96h576c51.2 0 96-44.8 96-96V704h96c51.2 0 96-44.8 96-96v-384c0-51.2-44.8-96-96-96zM704 800c0 19.2-12.8 32-32 32h-576c-19.2 0-32-12.8-32-32v-384c0-19.2 12.8-32 32-32h576c19.2 0 32 12.8 32 32v384z m192-192c0 19.2-12.8 32-32 32H768V416c0-51.2-44.8-96-96-96H256V224c0-19.2 12.8-32 32-32h576c19.2 0 32 12.8 32 32v384z"/>
</svg>